Coordinates
version=1
nRows=16
nColumns=36
inDegrees=yes

Units are S.I. units (second, meters, Newtons, ...)
If the header above contains a line with 'inDegrees', this indicates whether rotational values are in degrees (yes) or radians (no).

endheader
time	pelvis_tilt	pelvis_list	pelvis_rotation	pelvis_tx	pelvis_ty	pelvis_tz	hip_flexion_r	hip_adduction_r	hip_rotation_r	knee_angle_r	knee_angle_r_beta	ankle_angle_r	subtalar_angle_r	mtp_angle_r	hip_flexion_l	hip_adduction_l	hip_rotation_l	knee_angle_l	knee_angle_l_beta	ankle_angle_l	subtalar_angle_l	mtp_angle_l	lumbar_extension	lumbar_bending	lumbar_rotation	arm_flex_r	arm_add_r	arm_rot_r	elbow_flex_r	pro_sup_r	arm_flex_l	arm_add_l	arm_rot_l	elbow_flex_l	pro_sup_l
      1.43333330	     -4.56884808	     -0.22523135	     -1.55222270	     -0.02981259	      1.19459195	      0.12772726	      1.13340129	      0.30093375	    -11.18220506	      7.04482265	      0.12295535	     10.46460538	     -9.79680348	     -7.49999987	      4.86065465	      0.16032132	    -10.80897950	     13.30144821	      0.23215407	     16.70895516	      7.58212655	     -7.49999987	     -7.86810640	     -1.71097034	     -0.42026186	    -15.16028606	     -2.70025121	    -27.72997472	     31.04037545	     90.65416248	    -15.74583657	     -7.16076963	    -18.66362435	     36.58698058	     93.89778146
      1.45000000	     -5.17608865	     -0.22824857	     -1.61894851	     -0.02920392	      1.19323910	      0.12761294	      2.54927582	      0.05078884	    -11.02831001	      8.79844144	      0.15356177	     11.29213549	    -10.52021100	     -7.49999987	      5.88754683	      0.12699463	    -10.29508971	     14.47600365	      0.25265393	     17.31458934	      6.89038245	     -7.49999987	     -7.52057168	     -1.68327339	     -0.42563379	    -16.98596596	     -3.09424934	    -28.19175873	     32.00980843	     88.96768432	    -17.66267720	     -7.74351359	    -19.15976563	     37.23947686	     92.13839940
      1.46666670	     -5.50768773	     -0.21545352	     -1.65047951	     -0.02416261	      1.19080294	      0.12503715	      3.80952551	     -0.25212839	    -10.50978662	     10.79044746	      0.18832884	     11.20001831	    -12.34352551	     -7.49999987	      6.58105150	      0.11029123	    -10.37678578	     15.58222773	      0.27196118	     18.07880411	      7.10888708	     -7.49999987	     -7.40535699	     -1.63613656	     -0.52825688	    -17.20045729	     -3.11202608	    -32.09666652	     30.05410029	     88.10817390	    -18.10885007	     -7.56326568	    -22.70767283	     34.67724220	     91.88091103
      1.48333330	     -5.25697040	     -0.21678080	     -1.69899447	     -0.01783944	      1.19497364	      0.12308909	      4.34738289	     -0.63482479	    -10.46279400	     12.82953163	      0.22391757	     11.68407050	    -12.96902032	     -7.49999987	      6.32135015	      0.18925401	    -10.07670746	     16.40582104	      0.28633559	     18.66810858	      6.82789792	     -7.49999987	     -8.11813709	     -1.57834676	     -0.48705421	    -18.19021313	     -3.55356223	    -32.73984726	     29.69266199	     87.95988506	    -19.03584918	     -7.88854023	    -23.21692438	     34.24173789	     91.85678386
      1.50000000	     -5.61099287	     -0.16325432	     -1.61786290	     -0.01854407	      1.19121671	      0.12257814	      5.74463506	     -0.99961353	     -9.82785538	     15.30392225	      0.26710383	     12.52512706	    -14.20085555	     -7.49999987	      7.36925388	      0.24759889	     -9.72358366	     18.22789623	      0.31813680	     19.25548819	      5.89354374	     -7.49999987	     -8.15614255	     -1.55405701	     -0.36801298	    -19.33468486	     -3.52270225	    -34.21320263	     29.66966669	     84.59474796	    -19.83703127	     -8.14041133	    -24.43774537	     34.24847627	     88.90769580
      1.51666670	     -6.47783746	     -0.21205375	     -1.43284959	     -0.01820636	      1.19074905	      0.12257502	      7.71071213	     -1.14933488	     -8.95334411	     17.68859259	      0.30872418	     12.90511714	    -15.67281532	     -7.49999987	      9.54324747	      0.04085325	     -9.35003635	     21.07164868	      0.36776965	     19.90200988	      4.70178417	     -7.49999987	     -7.52918993	     -1.40115849	      0.10712993	    -20.31960168	     -2.88847032	    -39.08684727	     28.37352458	     82.56042475	    -19.84903629	     -8.17621695	    -27.40718523	     33.48534465	     89.55742164
      1.53333330	     -6.79569150	     -0.37089200	     -1.22936988	     -0.00614588	      1.19421812	      0.11815414	      8.51512213	     -1.23485512	     -8.43067320	     19.41655757	      0.33888286	     13.31078847	    -16.28235827	     -7.49999987	     10.86096246	     -0.20268457	     -8.82921778	     23.94195224	      0.41786590	     20.24601953	      3.94118882	     -7.49999987	     -7.68513454	     -1.11725400	      0.11066283	    -21.21541993	     -2.94657466	    -40.79684096	     27.43246328	     82.25057207	    -20.50975204	     -7.95281156	    -29.78713757	     33.51924524	     90.94044323
      1.55000000	     -6.84763918	     -0.67870045	     -1.21493484	     -0.00656980	      1.18844973	      0.11806702	      9.16404881	     -1.02005608	     -7.63815387	     21.29458726	      0.37166066	     13.22502630	    -17.84015570	     -7.49999987	     11.95542647	     -0.58874738	     -8.28095436	     27.04106010	      0.47195553	     20.83597084	      2.97927976	     -7.49999987	     -8.49825308	     -0.62823014	      0.25655108	    -22.69462517	     -2.98933323	    -40.48113531	     27.41940981	     80.52826356	    -21.16634933	     -8.01112001	    -29.73281127	     34.23247319	     88.98396326
      1.56666670	     -7.32007083	     -0.90867572	     -1.05214548	     -0.00597178	      1.18391004	      0.11753152	     10.63826210	     -0.92585820	     -6.74248728	     23.97739166	      0.41848443	     14.37529807	    -18.60544615	     -7.49999987	     13.84818657	     -0.72775613	     -7.07802988	     30.37834282	      0.53020210	     21.10594421	      1.46351048	     -7.49999987	     -8.71607355	     -0.25248262	     -0.16632762	    -22.58090690	     -3.19129127	    -41.41528364	     25.83224338	     78.79324838	    -21.57734837	     -7.74092680	    -31.06170288	     34.14164273	     87.39469489
      1.58333330	     -6.94434713	     -1.02729828	     -1.04780369	     -0.00096023	      1.18105732	      0.11496996	     11.11482910	     -0.85507200	     -5.53152752	     26.54198259	      0.46324499	     15.36315353	    -19.58633622	     -7.49999987	     14.60751385	     -0.77756390	     -6.29812450	     33.33378078	      0.58178423	     21.68544527	      0.61790766	     -7.49999987	    -10.18400983	     -0.01654143	     -0.24920241	    -22.50856300	     -3.20885854	    -41.57491522	     25.63193720	     78.76764289	    -21.67813938	     -7.64237632	    -31.41482373	     34.05380056	     87.46501158
      1.60000000	     -7.81328258	     -1.26489224	     -0.97007283	     -0.00054057	      1.17556833	      0.11460520	     13.16434306	     -0.41221494	     -3.88594795	     29.30584433	      0.51148347	     15.68885871	    -22.42698770	     -7.49999987	     17.00880116	     -0.91292386	     -5.19637997	     36.58220584	      0.63847994	     22.50515336	     -0.56386866	     -7.49999987	     -9.98281636	      0.20091418	     -0.73779973	    -21.42515294	     -3.21876383	    -42.87474962	     25.24780413	     77.52875400	    -22.00222479	     -6.31192380	    -36.59369798	     35.04167073	     87.98165339
      1.61666670	     -7.84109189	     -1.59077469	     -0.75591355	     -0.00146698	      1.16720423	      0.11384949	     14.38625799	      0.17686106	     -2.62618020	     32.20230578	      0.56203626	     16.22503614	    -25.13270462	     -7.49999987	     18.85843469	     -1.20644020	     -4.31999769	     40.29660115	      0.70330837	     23.68785829	     -1.26702170	     -7.49999987	    -11.15777588	      0.49530089	     -0.65593938	    -20.27640616	     -3.15695037	    -42.23707934	     25.11698261	     75.88594093	    -21.39794949	     -6.29768871	    -36.10650223	     34.86782802	     86.26061596
      1.63333330	     -7.87252551	     -1.86046612	     -0.56733767	     -0.00139564	      1.16527415	      0.11340551	     15.86231660	      0.81820164	     -1.38210260	     35.33452061	      0.61670372	     16.75006848	    -27.94339271	     -7.49999987	     20.62152893	     -1.46530671	     -3.51386412	     43.80084354	      0.76446893	     25.04891052	     -1.52122669	     -7.49999987	    -12.57151290	      0.67064956	     -0.74980537	    -19.00014371	     -3.01332230	    -41.61141626	     24.77391132	     74.95262287	    -20.73518743	     -6.17359026	    -35.94557449	     34.79573989	     85.53775741
      1.65000000	     -7.99299502	     -1.99300410	     -0.45033253	     -0.00241133	      1.15641128	      0.11276391	     17.96939370	      1.35950036	     -0.19330880	     39.36512253	      0.68705100	     17.78090260	    -30.30980577	     -7.49999987	     22.47451539	     -1.49551589	     -2.69871222	     46.85112010	      0.81770630	     26.26932448	     -2.02397376	     -7.49999987	    -14.08576464	      0.67550098	     -1.11269375	    -17.23737497	     -3.14473892	    -40.39279002	     23.90495647	     78.66095757	    -19.89959196	     -5.73748523	    -38.01223246	     34.55501616	     93.12630285
      1.66666670	     -7.88953563	     -2.04428180	     -0.39057283	      0.00173613	      1.14303299	      0.10995371	     19.78572214	      1.68876950	      0.65161521	     43.68791781	      0.76249801	     19.41680891	    -31.87926366	     -7.49999987	     24.08544129	     -1.37019926	     -1.97117149	     50.21313245	      0.87638449	     27.80855692	     -2.53246985	     -7.49999987	    -16.04331103	      0.67229374	     -1.45751602	    -15.26490710	     -2.94720207	    -39.84111793	     23.65244871	     78.62285224	    -18.76960040	     -5.46436551	    -37.79377829	     33.77467386	     92.78135274
      1.68333330	     -8.40464519	     -2.09213567	     -0.35063352	     -0.00540037	      1.13394195	      0.11105106	     22.61985034	      2.04724145	      1.41550523	     48.17714710	      0.84084984	     21.67603697	    -32.82296610	     -7.49999987	     26.84965320	     -1.08721612	     -0.99926027	     53.99244287	      0.94234590	     29.07744538	     -3.77038019	     -7.49999987	    -17.66999483	      0.56980061	     -1.45051208	    -12.25020946	     -3.07031208	    -37.54983290	     22.27746079	     77.65677426	    -16.85634024	     -5.52615999	    -37.10271156	     32.28498850	     89.43244609
